<svg width="1213" height="832" viewBox="0 0 1213 832" fill="none" xmlns="http://www.w3.org/2000/svg">
<path d="M150.123 832H81.2308V82.9781H68.892V410.749H0V3.69772H231.354V410.749H162.462V82.9781H150.123V832ZM394.129 832H325.237V597.709H312.898V832H244.006V3.69772H312.898V424.949H325.237V190.657H394.129V465.18C394.129 476.225 390.701 485.691 383.846 493.579C377.677 500.679 369.794 504.229 360.197 504.229H312.898V518.428H360.197C369.794 518.428 377.677 522.373 383.846 530.261C390.701 538.15 394.129 547.616 394.129 558.66V832ZM638.134 832H569.242V504.229H556.904V832H488.012V3.69772H604.203C613.8 3.69772 621.683 7.64201 627.852 15.5306C634.707 22.6303 638.134 31.7023 638.134 42.7462V370.517C638.134 381.562 634.707 391.028 627.852 398.916C621.683 406.805 613.8 410.749 604.203 410.749H556.904V424.949H604.203C613.8 424.949 621.683 428.893 627.852 436.781C634.707 444.67 638.134 454.136 638.134 465.18V832ZM556.904 331.469H569.242V82.9781H556.904V331.469ZM800.805 832H684.614C675.017 832 666.791 828.45 659.936 821.35C653.767 813.462 650.682 803.996 650.682 792.951V511.329C650.682 500.284 653.767 491.213 659.936 484.113C666.791 476.225 675.017 472.28 684.614 472.28H731.913V269.938H719.574V458.081H650.682V230.889C650.682 219.845 653.767 210.379 659.936 202.49C666.791 194.602 675.017 190.657 684.614 190.657H766.873C776.47 190.657 784.353 194.602 790.523 202.49C797.377 210.379 800.805 219.845 800.805 230.889V832ZM719.574 752.72H731.913V551.561H719.574V752.72ZM847.285 832C837.685 832 829.459 828.45 822.607 821.35C816.437 813.462 813.353 803.996 813.353 792.951V230.889C813.353 219.845 816.437 210.379 822.607 202.49C829.459 194.602 837.685 190.657 847.285 190.657H894.583V3.69772H963.475V832H847.285ZM894.583 269.938H882.245V752.72H894.583V269.938ZM976.023 832V190.657H1044.92V832H976.023ZM1044.92 3.69772V176.458H976.023V3.69772H1044.92ZM1207.48 792.951C1207.48 803.996 1204.05 813.462 1197.2 821.35C1190.35 828.45 1182.12 832 1172.52 832H1091.29C1081.69 832 1073.46 828.45 1066.61 821.35C1060.44 813.462 1057.36 803.996 1057.36 792.951V230.889C1057.36 219.845 1060.44 210.379 1066.61 202.49C1073.46 194.602 1081.69 190.657 1091.29 190.657H1172.52C1182.12 190.657 1190.35 194.602 1197.2 202.49C1204.05 210.379 1207.48 219.845 1207.48 230.889V792.951ZM1138.59 269.938H1126.25V752.72H1138.59V269.938Z" fill="#5B9FEA"/>
</svg>
